<svg version="1.1" xmlns="http://www.w3.org/2000/svg" xmlns:xlink="http://www.w3.org/1999/xlink" width="769.630859375" height="333"><defs/><g><g transform="translate(-22,-22) scale(1,1)"><rect fill="#ffffff" stroke="none" x="32" y="48" width="163.79248046875" height="60"/></g><g transform="translate(-22,-22) scale(1,1)"><path fill="none" stroke="#000000" d="M 32 48 L 195.79248046875 48 L 195.79248046875 108 L 32 108 L 32 48 Z Z" stroke-miterlimit="10"/></g><g transform="translate(-22,-22) scale(1,1)"><path fill="none" stroke="#000000" d="M 32 71 L 195.79248046875 71" stroke-miterlimit="10"/></g><g transform="translate(-22,-22) scale(1,1)"><path fill="none" stroke="#000000" d="M 60 71 L 60 108" stroke-miterlimit="10"/></g><g transform="translate(-22,-22) scale(1,1)"><path fill="none" stroke="#000000" d="M 123 71 L 123 108" stroke-miterlimit="10"/></g><g transform="translate(-22,-22) scale(1,1)"><g><path fill="none" stroke="none"/><text fill="#000000" stroke="none" font-family="Arial" font-size="13px" font-style="normal" font-weight="bold" text-decoration="none" x="97.396240234375" y="65.5">Tests</text></g></g><g transform="translate(-22,-22) scale(1,1)"><g><path fill="none" stroke="none"/><text fill="#000000" stroke="none" font-family="Arial" font-size="13px" font-style="normal" font-weight="normal" text-decoration="none" x="37" y="89">PK</text></g></g><g transform="translate(-22,-22) scale(1,1)"><g><path fill="none" stroke="none"/><text fill="#000000" stroke="none" font-family="Arial" font-size="13px" font-style="normal" font-weight="normal" text-decoration="none" x="65" y="89">ID</text></g></g><g transform="translate(-22,-22) scale(1,1)"><g><path fill="none" stroke="none"/><text fill="#000000" stroke="none" font-family="Arial" font-size="13px" font-style="normal" font-weight="normal" text-decoration="none" x="128" y="89">INTEGER</text></g></g><g transform="translate(-22,-22) scale(1,1)"><g><path fill="none" stroke="none"/><text fill="#000000" stroke="none" font-family="Arial" font-size="13px" font-style="normal" font-weight="normal" text-decoration="none" x="37" y="104"></text></g></g><g transform="translate(-22,-22) scale(1,1)"><g><path fill="none" stroke="none"/><text fill="#000000" stroke="none" font-family="Arial" font-size="13px" font-style="normal" font-weight="normal" text-decoration="none" x="65" y="104">TestDate</text></g></g><g transform="translate(-22,-22) scale(1,1)"><g><path fill="none" stroke="none"/><text fill="#000000" stroke="none" font-family="Arial" font-size="13px" font-style="normal" font-weight="normal" text-decoration="none" x="128" y="104">DATE</text></g></g><g transform="translate(-22,-22) scale(1,1)"><rect fill="#ffffff" stroke="none" x="288" y="32" width="241.41796875" height="135"/></g><g transform="translate(-22,-22) scale(1,1)"><path fill="none" stroke="#000000" d="M 288 32 L 529.41796875 32 L 529.41796875 167 L 288 167 L 288 32 Z Z" stroke-miterlimit="10"/></g><g transform="translate(-22,-22) scale(1,1)"><path fill="none" stroke="#000000" d="M 288 55 L 529.41796875 55" stroke-miterlimit="10"/></g><g transform="translate(-22,-22) scale(1,1)"><path fill="none" stroke="#000000" d="M 316 55 L 316 167" stroke-miterlimit="10"/></g><g transform="translate(-22,-22) scale(1,1)"><path fill="none" stroke="#000000" d="M 452 55 L 452 167" stroke-miterlimit="10"/></g><g transform="translate(-22,-22) scale(1,1)"><g><path fill="none" stroke="none"/><text fill="#000000" stroke="none" font-family="Arial" font-size="13px" font-style="normal" font-weight="bold" text-decoration="none" x="386.708984375" y="49.5">Results</text></g></g><g transform="translate(-22,-22) scale(1,1)"><g><path fill="none" stroke="none"/><text fill="#000000" stroke="none" font-family="Arial" font-size="13px" font-style="normal" font-weight="normal" text-decoration="none" x="293" y="73">PK</text></g></g><g transform="translate(-22,-22) scale(1,1)"><g><path fill="none" stroke="none"/><text fill="#000000" stroke="none" font-family="Arial" font-size="13px" font-style="normal" font-weight="normal" text-decoration="none" x="321" y="73">ID</text></g></g><g transform="translate(-22,-22) scale(1,1)"><g><path fill="none" stroke="none"/><text fill="#000000" stroke="none" font-family="Arial" font-size="13px" font-style="normal" font-weight="normal" text-decoration="none" x="457" y="73">INTEGER</text></g></g><g transform="translate(-22,-22) scale(1,1)"><g><path fill="none" stroke="none"/><text fill="#000000" stroke="none" font-family="Arial" font-size="13px" font-style="normal" font-weight="normal" text-decoration="none" x="293" y="88">FK</text></g></g><g transform="translate(-22,-22) scale(1,1)"><g><path fill="none" stroke="none"/><text fill="#000000" stroke="none" font-family="Arial" font-size="13px" font-style="normal" font-weight="normal" text-decoration="none" x="321" y="88">TestID</text></g></g><g transform="translate(-22,-22) scale(1,1)"><g><path fill="none" stroke="none"/><text fill="#000000" stroke="none" font-family="Arial" font-size="13px" font-style="normal" font-weight="normal" text-decoration="none" x="457" y="88">INTEGER</text></g></g><g transform="translate(-22,-22) scale(1,1)"><g><path fill="none" stroke="none"/><text fill="#000000" stroke="none" font-family="Arial" font-size="13px" font-style="normal" font-weight="normal" text-decoration="none" x="293" y="103">FK</text></g></g><g transform="translate(-22,-22) scale(1,1)"><g><path fill="none" stroke="none"/><text fill="#000000" stroke="none" font-family="Arial" font-size="13px" font-style="normal" font-weight="normal" text-decoration="none" x="321" y="103">SoundID</text></g></g><g transform="translate(-22,-22) scale(1,1)"><g><path fill="none" stroke="none"/><text fill="#000000" stroke="none" font-family="Arial" font-size="13px" font-style="normal" font-weight="normal" text-decoration="none" x="457" y="103">INTEGER</text></g></g><g transform="translate(-22,-22) scale(1,1)"><g><path fill="none" stroke="none"/><text fill="#000000" stroke="none" font-family="Arial" font-size="13px" font-style="normal" font-weight="normal" text-decoration="none" x="293" y="118"></text></g></g><g transform="translate(-22,-22) scale(1,1)"><g><path fill="none" stroke="none"/><text fill="#000000" stroke="none" font-family="Arial" font-size="13px" font-style="normal" font-weight="normal" text-decoration="none" x="321" y="118">FileName</text></g></g><g transform="translate(-22,-22) scale(1,1)"><g><path fill="none" stroke="none"/><text fill="#000000" stroke="none" font-family="Arial" font-size="13px" font-style="normal" font-weight="normal" text-decoration="none" x="457" y="118">VARCHAR</text></g></g><g transform="translate(-22,-22) scale(1,1)"><g><path fill="none" stroke="none"/><text fill="#000000" stroke="none" font-family="Arial" font-size="13px" font-style="normal" font-weight="normal" text-decoration="none" x="293" y="133"></text></g></g><g transform="translate(-22,-22) scale(1,1)"><g><path fill="none" stroke="none"/><text fill="#000000" stroke="none" font-family="Arial" font-size="13px" font-style="normal" font-weight="normal" text-decoration="none" x="321" y="133">SouldBeRecognised</text></g></g><g transform="translate(-22,-22) scale(1,1)"><g><path fill="none" stroke="none"/><text fill="#000000" stroke="none" font-family="Arial" font-size="13px" font-style="normal" font-weight="normal" text-decoration="none" x="457" y="133">BOOLEAN</text></g></g><g transform="translate(-22,-22) scale(1,1)"><g><path fill="none" stroke="none"/><text fill="#000000" stroke="none" font-family="Arial" font-size="13px" font-style="normal" font-weight="normal" text-decoration="none" x="293" y="148"></text></g></g><g transform="translate(-22,-22) scale(1,1)"><g><path fill="none" stroke="none"/><text fill="#000000" stroke="none" font-family="Arial" font-size="13px" font-style="normal" font-weight="normal" text-decoration="none" x="321" y="148">WasRecognised</text></g></g><g transform="translate(-22,-22) scale(1,1)"><g><path fill="none" stroke="none"/><text fill="#000000" stroke="none" font-family="Arial" font-size="13px" font-style="normal" font-weight="normal" text-decoration="none" x="457" y="148">BOOLEAN</text></g></g><g transform="translate(-22,-22) scale(1,1)"><g><path fill="none" stroke="none"/><text fill="#000000" stroke="none" font-family="Arial" font-size="13px" font-style="normal" font-weight="normal" text-decoration="none" x="293" y="163"></text></g></g><g transform="translate(-22,-22) scale(1,1)"><g><path fill="none" stroke="none"/><text fill="#000000" stroke="none" font-family="Arial" font-size="13px" font-style="normal" font-weight="normal" text-decoration="none" x="321" y="163">CorrectRecognition</text></g></g><g transform="translate(-22,-22) scale(1,1)"><g><path fill="none" stroke="none"/><text fill="#000000" stroke="none" font-family="Arial" font-size="13px" font-style="normal" font-weight="normal" text-decoration="none" x="457" y="163">BOOLEAN</text></g></g><g transform="translate(-22,-22) scale(1,1)"><rect fill="#ffffff" stroke="none" x="632" y="56" width="149.630859375" height="60"/></g><g transform="translate(-22,-22) scale(1,1)"><path fill="none" stroke="#000000" d="M 632 56 L 781.630859375 56 L 781.630859375 116 L 632 116 L 632 56 Z Z" stroke-miterlimit="10"/></g><g transform="translate(-22,-22) scale(1,1)"><path fill="none" stroke="#000000" d="M 632 79 L 781.630859375 79" stroke-miterlimit="10"/></g><g transform="translate(-22,-22) scale(1,1)"><path fill="none" stroke="#000000" d="M 660 79 L 660 116" stroke-miterlimit="10"/></g><g transform="translate(-22,-22) scale(1,1)"><path fill="none" stroke="#000000" d="M 705 79 L 705 116" stroke-miterlimit="10"/></g><g transform="translate(-22,-22) scale(1,1)"><g><path fill="none" stroke="none"/><text fill="#000000" stroke="none" font-family="Arial" font-size="13px" font-style="normal" font-weight="bold" text-decoration="none" x="684.8154296875" y="73.5">Sounds</text></g></g><g transform="translate(-22,-22) scale(1,1)"><g><path fill="none" stroke="none"/><text fill="#000000" stroke="none" font-family="Arial" font-size="13px" font-style="normal" font-weight="normal" text-decoration="none" x="637" y="97">PK</text></g></g><g transform="translate(-22,-22) scale(1,1)"><g><path fill="none" stroke="none"/><text fill="#000000" stroke="none" font-family="Arial" font-size="13px" font-style="normal" font-weight="normal" text-decoration="none" x="665" y="97">ID</text></g></g><g transform="translate(-22,-22) scale(1,1)"><g><path fill="none" stroke="none"/><text fill="#000000" stroke="none" font-family="Arial" font-size="13px" font-style="normal" font-weight="normal" text-decoration="none" x="710" y="97">INTEGER</text></g></g><g transform="translate(-22,-22) scale(1,1)"><g><path fill="none" stroke="none"/><text fill="#000000" stroke="none" font-family="Arial" font-size="13px" font-style="normal" font-weight="normal" text-decoration="none" x="637" y="112"></text></g></g><g transform="translate(-22,-22) scale(1,1)"><g><path fill="none" stroke="none"/><text fill="#000000" stroke="none" font-family="Arial" font-size="13px" font-style="normal" font-weight="normal" text-decoration="none" x="665" y="112">Name</text></g></g><g transform="translate(-22,-22) scale(1,1)"><g><path fill="none" stroke="none"/><text fill="#000000" stroke="none" font-family="Arial" font-size="13px" font-style="normal" font-weight="normal" text-decoration="none" x="710" y="112">VARCHAR</text></g></g><g transform="translate(-22,-22) scale(1,1)"><path fill="none" stroke="#000000" d="M 196 80 L 288 80" stroke-miterlimit="10"/></g><g transform="translate(-22,-22) scale(1,1)"><path fill="none" stroke="#000000" d="M 274 80 L 288 87" stroke-miterlimit="10"/></g><g transform="translate(-22,-22) scale(1,1)"><path fill="none" stroke="#000000" d="M 274 80 L 288 73" stroke-miterlimit="10"/></g><g transform="translate(-22,-22) scale(1,1)"><path fill="#FFFFFF" stroke="none" d="M 259 80 C 259 76.1340064 262.1340064 73 266 73 C 269.8659936 73 273 76.1340064 273 80 C 273 83.8659936 269.8659936 87 266 87 C 262.1340064 87 259 83.8659936 259 80 Z"/></g><g transform="translate(-22,-22) scale(1,1)"><path fill="none" stroke="#000000" d="M 259 80 C 259 76.1340064 262.1340064 73 266 73 C 269.8659936 73 273 76.1340064 273 80 C 273 83.8659936 269.8659936 87 266 87 C 262.1340064 87 259 83.8659936 259 80 Z" stroke-miterlimit="10"/></g><g transform="translate(-22,-22) scale(1,1)"><path fill="none" stroke="#000000" d="M 203 73 L 203 87" stroke-miterlimit="10"/></g><g transform="translate(-22,-22) scale(1,1)"><g><path fill="none" stroke="none"/><text fill="#000000" stroke="none" font-family="Arial" font-size="13px" font-style="normal" font-weight="normal" text-decoration="none" x="218" y="72">1</text></g></g><g transform="translate(-22,-22) scale(1,1)"><g><path fill="none" stroke="none"/><text fill="#000000" stroke="none" font-family="Arial" font-size="13px" font-style="normal" font-weight="normal" text-decoration="none" x="259" y="72">n</text></g></g><g transform="translate(-22,-22) scale(1,1)"><path fill="none" stroke="#000000" d="M 632 96 L 529 96" stroke-miterlimit="10"/></g><g transform="translate(-22,-22) scale(1,1)"><path fill="none" stroke="#000000" d="M 543 96 L 529 89" stroke-miterlimit="10"/></g><g transform="translate(-22,-22) scale(1,1)"><path fill="none" stroke="#000000" d="M 543 96 L 529 103" stroke-miterlimit="10"/></g><g transform="translate(-22,-22) scale(1,1)"><path fill="#FFFFFF" stroke="none" d="M 544 96 C 544 92.1340064 547.1340064 89 551 89 C 554.8659936 89 558 92.1340064 558 96 C 558 99.8659936 554.8659936 103 551 103 C 547.1340064 103 544 99.8659936 544 96 Z"/></g><g transform="translate(-22,-22) scale(1,1)"><path fill="none" stroke="#000000" d="M 544 96 C 544 92.1340064 547.1340064 89 551 89 C 554.8659936 89 558 92.1340064 558 96 C 558 99.8659936 554.8659936 103 551 103 C 547.1340064 103 544 99.8659936 544 96 Z" stroke-miterlimit="10"/></g><g transform="translate(-22,-22) scale(1,1)"><path fill="none" stroke="#000000" d="M 625 103 L 625 89" stroke-miterlimit="10"/></g><g transform="translate(-22,-22) scale(1,1)"><g><path fill="none" stroke="none"/><text fill="#000000" stroke="none" font-family="Arial" font-size="13px" font-style="normal" font-weight="normal" text-decoration="none" x="603" y="117">1</text></g></g><g transform="translate(-22,-22) scale(1,1)"><g><path fill="none" stroke="none"/><text fill="#000000" stroke="none" font-family="Arial" font-size="13px" font-style="normal" font-weight="normal" text-decoration="none" x="551" y="117">n</text></g></g><g transform="translate(-22,-22) scale(1,1)"><rect fill="#ffffff" stroke="none" x="288" y="240" width="236.80322265625" height="105"/></g><g transform="translate(-22,-22) scale(1,1)"><path fill="none" stroke="#000000" d="M 288 240 L 524.80322265625 240 L 524.80322265625 345 L 288 345 L 288 240 Z Z" stroke-miterlimit="10"/></g><g transform="translate(-22,-22) scale(1,1)"><path fill="none" stroke="#000000" d="M 288 263 L 524.80322265625 263" stroke-miterlimit="10"/></g><g transform="translate(-22,-22) scale(1,1)"><path fill="none" stroke="#000000" d="M 316 263 L 316 345" stroke-miterlimit="10"/></g><g transform="translate(-22,-22) scale(1,1)"><path fill="none" stroke="#000000" d="M 451 263 L 451 345" stroke-miterlimit="10"/></g><g transform="translate(-22,-22) scale(1,1)"><g><path fill="none" stroke="none"/><text fill="#000000" stroke="none" font-family="Arial" font-size="13px" font-style="normal" font-weight="bold" text-decoration="none" x="366.401611328125" y="257.5">FeatureMatch</text></g></g><g transform="translate(-22,-22) scale(1,1)"><g><path fill="none" stroke="none"/><text fill="#000000" stroke="none" font-family="Arial" font-size="13px" font-style="normal" font-weight="normal" text-decoration="none" x="293" y="281">PK</text></g></g><g transform="translate(-22,-22) scale(1,1)"><g><path fill="none" stroke="none"/><text fill="#000000" stroke="none" font-family="Arial" font-size="13px" font-style="normal" font-weight="normal" text-decoration="none" x="321" y="281">ID</text></g></g><g transform="translate(-22,-22) scale(1,1)"><g><path fill="none" stroke="none"/><text fill="#000000" stroke="none" font-family="Arial" font-size="13px" font-style="normal" font-weight="normal" text-decoration="none" x="456" y="281">INTEGER</text></g></g><g transform="translate(-22,-22) scale(1,1)"><g><path fill="none" stroke="none"/><text fill="#000000" stroke="none" font-family="Arial" font-size="13px" font-style="normal" font-weight="normal" text-decoration="none" x="293" y="296">FK</text></g></g><g transform="translate(-22,-22) scale(1,1)"><g><path fill="none" stroke="none"/><text fill="#000000" stroke="none" font-family="Arial" font-size="13px" font-style="normal" font-weight="normal" text-decoration="none" x="321" y="296">ResultID</text></g></g><g transform="translate(-22,-22) scale(1,1)"><g><path fill="none" stroke="none"/><text fill="#000000" stroke="none" font-family="Arial" font-size="13px" font-style="normal" font-weight="normal" text-decoration="none" x="456" y="296">INTEGER</text></g></g><g transform="translate(-22,-22) scale(1,1)"><g><path fill="none" stroke="none"/><text fill="#000000" stroke="none" font-family="Arial" font-size="13px" font-style="normal" font-weight="normal" text-decoration="none" x="293" y="311"></text></g></g><g transform="translate(-22,-22) scale(1,1)"><g><path fill="none" stroke="none"/><text fill="#000000" stroke="none" font-family="Arial" font-size="13px" font-style="normal" font-weight="normal" text-decoration="none" x="321" y="311">StrongestFrequency</text></g></g><g transform="translate(-22,-22) scale(1,1)"><g><path fill="none" stroke="none"/><text fill="#000000" stroke="none" font-family="Arial" font-size="13px" font-style="normal" font-weight="normal" text-decoration="none" x="456" y="311">DOUBLE</text></g></g><g transform="translate(-22,-22) scale(1,1)"><g><path fill="none" stroke="none"/><text fill="#000000" stroke="none" font-family="Arial" font-size="13px" font-style="normal" font-weight="normal" text-decoration="none" x="293" y="326"></text></g></g><g transform="translate(-22,-22) scale(1,1)"><g><path fill="none" stroke="none"/><text fill="#000000" stroke="none" font-family="Arial" font-size="13px" font-style="normal" font-weight="normal" text-decoration="none" x="321" y="326">ExampleFeature</text></g></g><g transform="translate(-22,-22) scale(1,1)"><g><path fill="none" stroke="none"/><text fill="#000000" stroke="none" font-family="Arial" font-size="13px" font-style="normal" font-weight="normal" text-decoration="none" x="456" y="326">DOUBLE</text></g></g><g transform="translate(-22,-22) scale(1,1)"><g><path fill="none" stroke="none"/><text fill="#000000" stroke="none" font-family="Arial" font-size="13px" font-style="normal" font-weight="normal" text-decoration="none" x="293" y="341"></text></g></g><g transform="translate(-22,-22) scale(1,1)"><g><path fill="none" stroke="none"/><text fill="#000000" stroke="none" font-family="Arial" font-size="13px" font-style="normal" font-weight="normal" text-decoration="none" x="321" y="341">...</text></g></g><g transform="translate(-22,-22) scale(1,1)"><g><path fill="none" stroke="none"/><text fill="#000000" stroke="none" font-family="Arial" font-size="13px" font-style="normal" font-weight="normal" text-decoration="none" x="456" y="341"></text></g></g><g transform="translate(-22,-22) scale(1,1)"><path fill="none" stroke="#000000" d="M 405 167 L 405 240" stroke-miterlimit="10"/></g><g transform="translate(-22,-22) scale(1,1)"><path fill="none" stroke="#000000" d="M 398 233 L 412 233" stroke-miterlimit="10"/></g><g transform="translate(-22,-22) scale(1,1)"><path fill="none" stroke="#000000" d="M 412 174 L 398 174" stroke-miterlimit="10"/></g><g transform="translate(-22,-22) scale(1,1)"><g><path fill="none" stroke="none"/><text fill="#000000" stroke="none" font-family="Arial" font-size="13px" font-style="normal" font-weight="normal" text-decoration="none" x="417" y="199">1</text></g></g><g transform="translate(-22,-22) scale(1,1)"><g><path fill="none" stroke="none"/><text fill="#000000" stroke="none" font-family="Arial" font-size="13px" font-style="normal" font-weight="normal" text-decoration="none" x="417" y="221">1</text></g></g></g></svg>